<?xml version="1.0" encoding="UTF-8" standalone="no"?>
<svg
   xmlns:dc="http://purl.org/dc/elements/1.1/"
   xmlns:cc="http://creativecommons.org/ns#"
   xmlns:rdf="http://www.w3.org/1999/02/22-rdf-syntax-ns#"
   xmlns:svg="http://www.w3.org/2000/svg"
   xmlns="http://www.w3.org/2000/svg"
   viewBox="0 0 4946.6665 4946.6665"
   height="4946.6665"
   width="4946.6665"
   xml:space="preserve"
   id="svg2"
   version="1.1"><metadata
     id="metadata8"><rdf:RDF><cc:Work
         rdf:about=""><dc:format>image/svg+xml</dc:format><dc:type
           rdf:resource="http://purl.org/dc/dcmitype/StillImage" /></cc:Work></rdf:RDF></metadata><defs
     id="defs6"><clipPath
       id="clipPath24"
       clipPathUnits="userSpaceOnUse"><path
         id="path22"
         d="m 18146.9,4550 c -1874.6,0 -3378.1,198.8 -4060.1,325.7 -2686.5,500 -4072.9,692.3 -5964.48,2302 H 28138.7 c -54.8,-37.3 -113.4,-76.5 -177.6,-119.4 C 24936.2,5038.6 21085.7,4550 18146.9,4550 M 6176.05,9414.8 c -2880.63,4582.6 -2289.92,11752.6 777.75,16439.7 19.95,30.5 46.74,70.6 80.33,119.7 l 150.43,-3106.6 -139.39,3.6 c -9.77,0.3 -19.56,0.4 -29.3,0.4 -299.11,0 -586.5,-118.4 -798.8,-330 -219.21,-218.5 -339.16,-517.3 -331.85,-826.6 L 6176.05,9414.8 m 25250.05,1847.6 149.2,10303.8 c 0,237.7 -270,693.5 -766.3,693.5 -18.4,0 -37.2,-0.6 -56.3,-1.9 l -570.5,14.7 c 490.1,958.2 783.4,1873.7 943.3,2717.3 2055.6,-4187.5 2276,-9595.7 300.6,-13727.4 M 28511,25860.6 c -11.9,1183.4 -174.9,2260.8 -387.4,3172.2 414.2,-379.8 912.5,-886.7 1424.1,-1532.6 -310.5,-496.3 -666,-1045.2 -1036.7,-1639.6 m -3699.9,110.7 -2659.6,2938.1 -12404.08,75.9 c 1636.58,1432 3938.78,2883 6793.98,3256.2 44.9,5.9 762,100.5 1861.6,100.5 2034.1,0 5377.2,-323.5 8199.2,-2131.6 -322.8,-973.3 -868.9,-2364 -1791.1,-4239.1" /></clipPath><linearGradient
       id="linearGradient32"
       spreadMethod="pad"
       gradientTransform="matrix(-22005.3,19740.1,19740.1,22005.3,36699,1439)"
       gradientUnits="userSpaceOnUse"
       y2="0"
       x2="1"
       y1="0"
       x1="0"><stop
         id="stop28"
         offset="0"
         style="stop-opacity:1;stop-color:#dae3fe" /><stop
         id="stop30"
         offset="1"
         style="stop-opacity:1;stop-color:#e9effd" /></linearGradient><clipPath
       id="clipPath54"
       clipPathUnits="userSpaceOnUse"><path
         id="path52"
         d="m 25167,22402.3 -187.7,4.9 c 350.8,1533.7 851.4,3194 1564.8,4753.4 15.6,33.8 49,53.8 84,53.8 12.8,0 25.8,-2.7 38.2,-8.4 46.3,-21.2 66.7,-75.8 45.5,-122.2 -702.3,-1534.9 -1196.9,-3169 -1544.8,-4681.5" /></clipPath><linearGradient
       id="linearGradient62"
       spreadMethod="pad"
       gradientTransform="matrix(2553.37,0,0,-2553.37,24166.8,21825.4)"
       gradientUnits="userSpaceOnUse"
       y2="0"
       x2="1"
       y1="0"
       x1="0"><stop
         id="stop58"
         offset="0"
         style="stop-opacity:1;stop-color:#dae3fe" /><stop
         id="stop60"
         offset="1"
         style="stop-opacity:1;stop-color:#e9effd" /></linearGradient><clipPath
       id="clipPath72"
       clipPathUnits="userSpaceOnUse"><path
         id="path70"
         d="M 30924.8,7177.7 H 6666.94 c -246.71,0 -448.59,201.7 -448.59,448.2 l -42.3,1788.9 -290.83,12300.2 c -7.31,309.3 112.64,608.1 331.85,826.6 212.3,211.6 499.69,330 798.8,330 9.74,0 19.53,-0.1 29.3,-0.4 l 139.39,-3.6 25.66,-529.8 -71.81,1.9 c -7.1,0.2 -14.23,0.3 -21.31,0.3 -209.88,0 -411.48,-83.3 -560.49,-231.9 -154.04,-153.6 -238.75,-363.9 -233.3,-581.4 L 6661.23,8055.9 c 0,-233.5 190.97,-424.4 424.4,-424.4 H 30339.8 c 233.5,0 424.4,190.9 424.4,424.4 l 190.5,12655.1 c -21.8,740.5 -653.7,1019.8 -1060.7,1019.8 -11.6,0 -22.9,-0.2 -34.1,-0.7 l -5231.6,140.4 26.5,545.1 324.5,-8.4 187.7,-4.9 2902.8,-75.1 248.6,-6.4 240.2,-6.3 1623.6,-42 570.5,-14.7 c 19.1,1.3 37.9,1.9 56.3,1.9 496.3,0 766.3,-455.8 766.3,-693.5 l -149.2,-10303.8 -52.7,-3636.5 c 0,-246.5 -201.8,-448.2 -448.6,-448.2" /></clipPath><linearGradient
       id="linearGradient80"
       spreadMethod="pad"
       gradientTransform="matrix(-5729.19,17187.6,-17187.6,-5729.19,21011.6,8249.4)"
       gradientUnits="userSpaceOnUse"
       y2="0"
       x2="1"
       y1="0"
       x1="0"><stop
         id="stop76"
         offset="0"
         style="stop-opacity:1;stop-color:#09005d" /><stop
         id="stop78"
         offset="1"
         style="stop-opacity:1;stop-color:#1a0f91" /></linearGradient><clipPath
       id="clipPath90"
       clipPathUnits="userSpaceOnUse"><path
         id="path88"
         d="M 30339.8,7631.5 H 7085.63 c -233.43,0 -424.4,190.9 -424.4,424.4 l -337.92,13470.8 c -5.45,217.5 79.26,427.8 233.3,581.4 149.01,148.6 350.61,231.9 560.49,231.9 7.08,0 14.21,-0.1 21.31,-0.3 l 71.81,-1.9 709.65,-14655.4 H 23937.7 l 672.5,13817 5037.2,-135.1 c 1.9,0.1 8.9,0.3 20.2,0.3 88.2,0 437.5,-14.9 667.1,-234.9 138.8,-132.9 209.6,-319.3 210.7,-552.8 l -57.7,-3930.8 c -0.5,-34.4 26.9,-62.7 61.3,-63.2 h 0.9 c 33.9,0 61.6,27.3 62.2,61.3 l 57.7,3932.1 c -1.3,269.6 -85,486.1 -249,643.2 -258.3,247.5 -631.5,269.8 -744.5,269.8 -14.5,0 -24.7,-0.4 -29.9,-0.7 l -5030.1,135 12,246.9 5231.6,-140.4 c 11.2,0.5 22.5,0.7 34.1,0.7 407,0 1038.9,-279.3 1060.7,-1019.8 L 30764.2,8055.9 c 0,-233.5 -190.9,-424.4 -424.4,-424.4 m 188.2,7587.2 c -33.9,0 -61.7,-27.3 -62.2,-61.3 l -15,-1026.3 c -0.6,-34.4 26.9,-62.7 61.2,-63.2 h 1 c 33.9,0 61.6,27.3 62.1,61.3 l 15.1,1026.3 c 0.5,34.4 -26.9,62.7 -61.3,63.2 h -0.9" /></clipPath><linearGradient
       id="linearGradient98"
       spreadMethod="pad"
       gradientTransform="matrix(25547.8,13864.4,13864.4,-25547.8,5954.74,8079.2)"
       gradientUnits="userSpaceOnUse"
       y2="0"
       x2="1"
       y1="0"
       x1="0"><stop
         id="stop94"
         offset="0"
         style="stop-opacity:1;stop-color:#ff928e" /><stop
         id="stop96"
         offset="1"
         style="stop-opacity:1;stop-color:#fe7062" /></linearGradient><clipPath
       id="clipPath108"
       clipPathUnits="userSpaceOnUse"><path
         id="path106"
         d="m 30513,14067.9 h -1 c -34.3,0.5 -61.8,28.8 -61.2,63.2 l 15,1026.3 c 0.5,34 28.3,61.3 62.2,61.3 h 0.9 c 34.4,-0.5 61.8,-28.8 61.3,-63.2 l -15.1,-1026.3 c -0.5,-34 -28.2,-61.3 -62.1,-61.3" /></clipPath><linearGradient
       id="linearGradient116"
       spreadMethod="pad"
       gradientTransform="matrix(25547.8,13864.4,13864.4,-25547.8,5954.74,8079.2)"
       gradientUnits="userSpaceOnUse"
       y2="0"
       x2="1"
       y1="0"
       x1="0"><stop
         id="stop112"
         offset="0"
         style="stop-opacity:1;stop-color:#ffd3d2" /><stop
         id="stop114"
         offset="1"
         style="stop-opacity:1;stop-color:#ffc6c0" /></linearGradient><clipPath
       id="clipPath126"
       clipPathUnits="userSpaceOnUse"><path
         id="path124"
         d="m 30549.9,16582.9 h -0.9 c -34.4,0.5 -61.8,28.8 -61.3,63.2 l 57.7,3930.8 c -1.1,233.5 -71.9,419.9 -210.7,552.8 -229.6,220 -578.9,234.9 -667.1,234.9 -11.3,0 -18.3,-0.2 -20.2,-0.3 l -5037.2,135.1 6.1,124.2 5030.1,-135 c 5.2,0.3 15.4,0.7 29.9,0.7 113,0 486.2,-22.3 744.5,-269.8 164,-157.1 247.7,-373.6 249,-643.2 l -57.7,-3932.1 c -0.6,-34 -28.3,-61.3 -62.2,-61.3" /></clipPath><linearGradient
       id="linearGradient134"
       spreadMethod="pad"
       gradientTransform="matrix(25547.8,13864.4,13864.4,-25547.8,5954.74,8079.2)"
       gradientUnits="userSpaceOnUse"
       y2="0"
       x2="1"
       y1="0"
       x1="0"><stop
         id="stop130"
         offset="0"
         style="stop-opacity:1;stop-color:#ffd3d2" /><stop
         id="stop132"
         offset="1"
         style="stop-opacity:1;stop-color:#ffc6c0" /></linearGradient><clipPath
       id="clipPath144"
       clipPathUnits="userSpaceOnUse"><path
         id="path142"
         d="M 4306.99,6020.5 H 32793 c 31.1,0 56.6,25.5 56.6,56.6 v 1111.7 c 0,31.1 -25.5,56.6 -56.6,56.6 H 4306.99 c -31.1,0 -56.54,-25.5 -56.54,-56.6 V 6077.1 c 0,-31.1 25.44,-56.6 56.54,-56.6 z" /></clipPath><linearGradient
       id="linearGradient152"
       spreadMethod="pad"
       gradientTransform="matrix(25522.8,-6208.24,6208.24,25522.8,7676.07,9277.9)"
       gradientUnits="userSpaceOnUse"
       y2="0"
       x2="1"
       y1="0"
       x1="0"><stop
         id="stop148"
         offset="0"
         style="stop-opacity:1;stop-color:#09005d" /><stop
         id="stop150"
         offset="1"
         style="stop-opacity:1;stop-color:#1a0f91" /></linearGradient><clipPath
       id="clipPath166"
       clipPathUnits="userSpaceOnUse"><path
         id="path164"
         d="m 22750,26041.3 c -468.8,16.5 -829.3,420.6 -792.3,888.3 l 154.3,1952.8 2717.9,-2916.7 z" /></clipPath><linearGradient
       id="linearGradient174"
       spreadMethod="pad"
       gradientTransform="matrix(6023.46,6490.81,6490.81,-6023.46,26122.6,30281.5)"
       gradientUnits="userSpaceOnUse"
       y2="0"
       x2="1"
       y1="0"
       x1="0"><stop
         id="stop170"
         offset="0"
         style="stop-opacity:1;stop-color:#4f52ff" /><stop
         id="stop172"
         offset="1"
         style="stop-opacity:1;stop-color:#4042e2" /></linearGradient><clipPath
       id="clipPath228"
       clipPathUnits="userSpaceOnUse"><path
         id="path226"
         d="m 24659.6,7757.7 c 285.4,-24.7 780.8,-64.8 1171.3,-81.9 234.7,-10.4 369.8,12.6 447.7,43.8 -0.2,-8.8 -0.4,-17.1 -0.7,-24.8 -1.9,-41.1 -35.3,-74 -76.8,-76.3 -737.9,-41.2 -1324.7,-14.2 -1533.6,-1.5 -43.2,2.6 -68.9,49.6 -46.8,86.4 11,18.4 24.4,36.4 38.9,54.3 z" /></clipPath><linearGradient
       id="linearGradient236"
       spreadMethod="pad"
       gradientTransform="matrix(-1665.99,0,0,-1665.99,26278.6,7677.1)"
       gradientUnits="userSpaceOnUse"
       y2="0"
       x2="1"
       y1="0"
       x1="0"><stop
         id="stop232"
         offset="0"
         style="stop-opacity:1;stop-color:#4f52ff" /><stop
         id="stop234"
         offset="1"
         style="stop-opacity:1;stop-color:#4042e2" /></linearGradient><clipPath
       id="clipPath246"
       clipPathUnits="userSpaceOnUse"><path
         id="path244"
         d="m 25830.9,7675.8 c -390.5,17.1 -885.9,57.2 -1171.3,81.9 280.6,344.2 1171.3,576.3 1171.3,576.3 h 251.5 c 173,-249.4 198.1,-486.8 196.2,-614.4 -77.9,-31.2 -213,-54.2 -447.7,-43.8 z" /></clipPath><linearGradient
       id="linearGradient254"
       spreadMethod="pad"
       gradientTransform="matrix(-1619.04,0,0,-1619.04,26278.7,8003.6)"
       gradientUnits="userSpaceOnUse"
       y2="0"
       x2="1"
       y1="0"
       x1="0"><stop
         id="stop250"
         offset="0"
         style="stop-opacity:1;stop-color:#09005d" /><stop
         id="stop252"
         offset="1"
         style="stop-opacity:1;stop-color:#1a0f91" /></linearGradient><clipPath
       id="clipPath264"
       clipPathUnits="userSpaceOnUse"><path
         id="path262"
         d="m 26124.8,8744.6 -23.6,-465.8 c -2.5,-50.4 -40.3,-92.8 -90.8,-100 -50.3,-7.2 -117.6,-8.1 -189,15.6 -43.9,14.6 -76.5,51.6 -84.6,96.8 l -81.3,453.4 z" /></clipPath><linearGradient
       id="linearGradient272"
       spreadMethod="pad"
       gradientTransform="matrix(3063.81,2319.5,2319.5,-3063.81,26345,8841.1)"
       gradientUnits="userSpaceOnUse"
       y2="0"
       x2="1"
       y1="0"
       x1="0"><stop
         id="stop268"
         offset="0"
         style="stop-opacity:1;stop-color:#febbba" /><stop
         id="stop270"
         offset="1"
         style="stop-opacity:1;stop-color:#ff928e" /></linearGradient><clipPath
       id="clipPath282"
       clipPathUnits="userSpaceOnUse"><path
         id="path280"
         d="m 29392,7679.2 c 123.7,17.3 179.7,81.6 203.2,150.3 l 0.5,-1.8 c 18.2,-72.5 -24,-147.7 -108.4,-183.4 -102,-43.2 -213.5,-50.6 -300.1,-47 -92.9,3.8 -178.2,42.3 -225.1,103.8 l -0.7,0.9 c 93.3,-46.1 224.2,-51.5 430.6,-22.8 z" /></clipPath><linearGradient
       id="linearGradient290"
       spreadMethod="pad"
       gradientTransform="matrix(-638.435,0,0,-638.435,29599.9,7713)"
       gradientUnits="userSpaceOnUse"
       y2="0"
       x2="1"
       y1="0"
       x1="0"><stop
         id="stop286"
         offset="0"
         style="stop-opacity:1;stop-color:#4f52ff" /><stop
         id="stop288"
         offset="1"
         style="stop-opacity:1;stop-color:#4042e2" /></linearGradient><clipPath
       id="clipPath300"
       clipPathUnits="userSpaceOnUse"><path
         id="path298"
         d="m 28808.4,8747.6 h 207.5 c 315.9,6.5 514.4,-660 579.3,-918.1 -23.5,-68.7 -79.5,-133 -203.2,-150.3 -206.4,-28.7 -337.3,-23.3 -430.6,22.8 -170.7,224.7 -255.3,553.7 -296,745.7 -46.3,218.4 143,299.9 143,299.9 z" /></clipPath><linearGradient
       id="linearGradient308"
       spreadMethod="pad"
       gradientTransform="matrix(-937.096,0,0,-937.096,29595.2,8204.6)"
       gradientUnits="userSpaceOnUse"
       y2="0"
       x2="1"
       y1="0"
       x1="0"><stop
         id="stop304"
         offset="0"
         style="stop-opacity:1;stop-color:#09005d" /><stop
         id="stop306"
         offset="1"
         style="stop-opacity:1;stop-color:#1a0f91" /></linearGradient><clipPath
       id="clipPath318"
       clipPathUnits="userSpaceOnUse"><path
         id="path316"
         d="m 28989.2,9180 115.2,-458.2 c 14.1,-56.1 -12.8,-114.3 -64.7,-140.9 -64.4,-33.1 -155.2,-67.8 -238.5,-57.8 -39.3,4.8 -71.8,32.4 -84.8,69.3 l -169.1,482 z" /></clipPath><linearGradient
       id="linearGradient326"
       spreadMethod="pad"
       gradientTransform="matrix(2752.23,2007.92,2007.92,-2752.23,29072.2,9030)"
       gradientUnits="userSpaceOnUse"
       y2="0"
       x2="1"
       y1="0"
       x1="0"><stop
         id="stop322"
         offset="0"
         style="stop-opacity:1;stop-color:#febbba" /><stop
         id="stop324"
         offset="1"
         style="stop-opacity:1;stop-color:#ff928e" /></linearGradient><clipPath
       id="clipPath336"
       clipPathUnits="userSpaceOnUse"><path
         id="path334"
         d="m 29126.6,9047.5 c -143.3,-127.1 -609.5,-143.9 -609.5,-143.9 -1679.1,4030.2 -2366,4602.7 -2366,4602.7 242.5,-1521.2 39.1,-4888.8 39.1,-4888.8 -277.1,-122.3 -634.3,0 -634.3,0 -22.5,2490.3 -405.3,4662.1 -857.5,6374.3 1134.9,25.6 1738.4,413.9 1935.5,569.8 946,-1525.2 2492.7,-6514.1 2492.7,-6514.1 z" /></clipPath><linearGradient
       id="linearGradient344"
       spreadMethod="pad"
       gradientTransform="matrix(-4309.88,-8256.28,-8256.28,4309.88,32117.3,21990.3)"
       gradientUnits="userSpaceOnUse"
       y2="0"
       x2="1"
       y1="0"
       x1="0"><stop
         id="stop340"
         offset="0"
         style="stop-opacity:1;stop-color:#4f52ff" /><stop
         id="stop342"
         offset="1"
         style="stop-opacity:1;stop-color:#4042e2" /></linearGradient><clipPath
       id="clipPath354"
       clipPathUnits="userSpaceOnUse"><path
         id="path352"
         d="m 26345.7,20196.2 c 214.8,-1071.5 137.8,-2989.2 87.2,-3864 -14.2,-245.8 157.5,-586.7 296.2,-819.2 21.7,-36.5 8.3,-83.2 -29.5,-102.6 -232.2,-119.4 -1019.1,-489.3 -1931,-535.3 -60.8,-3.1 -115.1,38.3 -130.8,97.1 -676.5,2525.8 -1462.2,4139.8 -1462.2,4139.8 867.4,1385.2 3170.1,1084.2 3170.1,1084.2 z" /></clipPath><linearGradient
       id="linearGradient362"
       spreadMethod="pad"
       gradientTransform="matrix(12856.9,-11182.2,11182.2,12856.9,22055.2,20558.1)"
       gradientUnits="userSpaceOnUse"
       y2="0"
       x2="1"
       y1="0"
       x1="0"><stop
         id="stop358"
         offset="0"
         style="stop-opacity:1;stop-color:#4f52ff" /><stop
         id="stop360"
         offset="1"
         style="stop-opacity:1;stop-color:#4042e2" /></linearGradient><clipPath
       id="clipPath372"
       clipPathUnits="userSpaceOnUse"><path
         id="path370"
         d="m 26036.5,13601.7 c 9.6,0 19.2,2.6 28,7.9 25.3,15.5 33.3,48.5 17.9,73.8 -9,14.9 -226.2,366 -665.7,578 -26.7,12.8 -58.9,1.8 -71.9,-25 -12.9,-26.8 -1.6,-59 25.1,-71.8 409.8,-197.7 618.6,-533.8 620.7,-537.1 10.1,-16.6 27.8,-25.8 45.9,-25.8 z" /></clipPath><linearGradient
       id="linearGradient380"
       spreadMethod="pad"
       gradientTransform="matrix(-268.736,537.47,-537.47,-268.736,27218.2,10927.6)"
       gradientUnits="userSpaceOnUse"
       y2="0"
       x2="1"
       y1="0"
       x1="0"><stop
         id="stop376"
         offset="0"
         style="stop-opacity:1;stop-color:#53d8ff" /><stop
         id="stop378"
         offset="1"
         style="stop-opacity:1;stop-color:#3840f7" /></linearGradient><clipPath
       id="clipPath390"
       clipPathUnits="userSpaceOnUse"><path
         id="path388"
         d="m 27693.1,17121.1 c -69,-499.2 -272.9,-1043.6 -680.7,-1621.9 l -155,126.3 c 0,0 178.9,726.1 77.2,1550.2 251.6,49 548.7,-1.5 758.5,-54.6 z" /></clipPath><linearGradient
       id="linearGradient398"
       spreadMethod="pad"
       gradientTransform="matrix(1996.46,-1767.91,1767.91,1996.46,28324.7,15443.9)"
       gradientUnits="userSpaceOnUse"
       y2="0"
       x2="1"
       y1="0"
       x1="0"><stop
         id="stop394"
         offset="0"
         style="stop-opacity:1;stop-color:#febbba" /><stop
         id="stop396"
         offset="1"
         style="stop-opacity:1;stop-color:#ff928e" /></linearGradient><clipPath
       id="clipPath408"
       clipPathUnits="userSpaceOnUse"><path
         id="path406"
         d="m 26105.8,18874.2 239.9,1322 c 0,0 1603.1,-1225.4 1347.4,-3075.1 -209.8,53.1 -506.9,103.6 -758.5,54.6 -73.3,593.6 -292.2,1238 -828.8,1698.5 z" /></clipPath><linearGradient
       id="linearGradient416"
       spreadMethod="pad"
       gradientTransform="matrix(12798.9,-11131.8,11131.8,12798.9,23127.1,21743.1)"
       gradientUnits="userSpaceOnUse"
       y2="0"
       x2="1"
       y1="0"
       x1="0"><stop
         id="stop412"
         offset="0"
         style="stop-opacity:1;stop-color:#4f52ff" /><stop
         id="stop414"
         offset="1"
         style="stop-opacity:1;stop-color:#4042e2" /></linearGradient><clipPath
       id="clipPath426"
       clipPathUnits="userSpaceOnUse"><path
         id="path424"
         d="m 23175.6,19112 618.8,-1332.7 c -100.1,-804.5 -532.3,-1152.4 -998.3,-1285.8 -29,366.6 -121.8,662.9 -207.8,867.8 595.5,614.8 587.3,1750.7 587.3,1750.7 z" /></clipPath><linearGradient
       id="linearGradient434"
       spreadMethod="pad"
       gradientTransform="matrix(12798.9,-11131.8,11131.8,12798.9,21115.1,19429.8)"
       gradientUnits="userSpaceOnUse"
       y2="0"
       x2="1"
       y1="0"
       x1="0"><stop
         id="stop430"
         offset="0"
         style="stop-opacity:1;stop-color:#4f52ff" /><stop
         id="stop432"
         offset="1"
         style="stop-opacity:1;stop-color:#4042e2" /></linearGradient><clipPath
       id="clipPath444"
       clipPathUnits="userSpaceOnUse"><path
         id="path442"
         d="m 22588.3,17361.3 c 86,-204.9 178.8,-501.2 207.8,-867.8 -1243.3,-482.4 -1572.3,453.1 -1572.3,453.1 l 229.8,40.5 c 518.9,-54.6 881.4,112.7 1134.7,374.2 z" /></clipPath><linearGradient
       id="linearGradient452"
       spreadMethod="pad"
       gradientTransform="matrix(-1572.3,0,0,-1572.3,22796.1,16858.3)"
       gradientUnits="userSpaceOnUse"
       y2="0"
       x2="1"
       y1="0"
       x1="0"><stop
         id="stop448"
         offset="0"
         style="stop-opacity:1;stop-color:#febbba" /><stop
         id="stop450"
         offset="1"
         style="stop-opacity:1;stop-color:#ff928e" /></linearGradient><clipPath
       id="clipPath462"
       clipPathUnits="userSpaceOnUse"><path
         id="path460"
         d="m 23745.7,20757.3 298.7,-1098.2 c 33.6,-123.4 167,-189.6 285.8,-142.2 128.1,51.2 290.6,121.1 430.5,196.7 149.4,80.6 196.1,272.7 101.6,413.7 l -621.1,926.1 z" /></clipPath><linearGradient
       id="linearGradient470"
       spreadMethod="pad"
       gradientTransform="matrix(17.1725,-2936.15,2936.15,17.1725,24324.4,21060)"
       gradientUnits="userSpaceOnUse"
       y2="0"
       x2="1"
       y1="0"
       x1="0"><stop
         id="stop466"
         offset="0"
         style="stop-opacity:1;stop-color:#febbba" /><stop
         id="stop468"
         offset="1"
         style="stop-opacity:1;stop-color:#ff928e" /></linearGradient><clipPath
       id="clipPath480"
       clipPathUnits="userSpaceOnUse"><path
         id="path478"
         d="m 23092.2,21591.6 c -2.8,-18.9 249.1,-1253.2 249.1,-1253.2 l 701.7,158.8 -64.9,1205.4 c 0,0 -840.4,204.7 -885.9,-111 z" /></clipPath><linearGradient
       id="linearGradient488"
       spreadMethod="pad"
       gradientTransform="matrix(1157.38,-2098.72,2098.72,1157.38,23371.7,21542.8)"
       gradientUnits="userSpaceOnUse"
       y2="0"
       x2="1"
       y1="0"
       x1="0"><stop
         id="stop484"
         offset="0"
         style="stop-opacity:1;stop-color:#febbba" /><stop
         id="stop486"
         offset="1"
         style="stop-opacity:1;stop-color:#ff928e" /></linearGradient><clipPath
       id="clipPath498"
       clipPathUnits="userSpaceOnUse"><path
         id="path496"
         d="m 23820.3,21434 83.9,-631.9 c 1,-8.1 1,-16.1 -0.1,-24.2 -7.1,-49.5 -44,-218.1 -214.2,-169.9 -154.4,43.8 -296,81.4 -393.8,51.5 -43.9,-13.5 -70.4,-58 -61.2,-103 22.9,-112.1 79.2,-363.8 161.5,-575.1 16.7,-42.9 63.6,-65.4 107.8,-52.5 133.1,38.8 411.5,128.5 618.5,253.1 28.1,16.9 44.8,47.4 43.4,80.1 -6.7,159.5 -25.3,644.4 -9.7,780.3 14.8,127.6 171.4,204 239.4,231.4 22.3,9 39.8,26.6 48.7,48.9 31.5,79 74.9,261.6 -155.3,336.5 -48.2,15.7 -73.6,67.6 -56.4,115.3 34.1,94.9 48.4,239.8 -129.7,319.6 -181,81.1 -316.1,-15.4 -389.1,-93.8 -29.6,-31.7 -76.9,-36.6 -113.5,-13.4 -20.9,13.1 -47.7,17.5 -80.2,-2.7 -43.7,-27.3 -101.6,-8.7 -124.2,37.6 -43.3,89 -131.7,184.3 -308.9,153.9 -314.4,-53.8 -350.1,-402.3 -267.1,-606.5 83,-204.2 420.6,-126.4 589.9,-23.5 128.8,78.3 295.8,-3.7 368.5,-47.6 23,-13.8 38.3,-37.5 41.8,-64.1 z" /></clipPath><linearGradient
       id="linearGradient506"
       spreadMethod="pad"
       gradientTransform="matrix(-1708.66,246.535,-246.535,-1708.66,24398.2,20928.7)"
       gradientUnits="userSpaceOnUse"
       y2="0"
       x2="1"
       y1="0"
       x1="0"><stop
         id="stop502"
         offset="0"
         style="stop-opacity:1;stop-color:#09005d" /><stop
         id="stop504"
         offset="1"
         style="stop-opacity:1;stop-color:#1a0f91" /></linearGradient><clipPath
       id="clipPath516"
       clipPathUnits="userSpaceOnUse"><path
         id="path514"
         d="m 24184.7,20812.1 c 0,0 -129.3,362 3.5,450.6 132.9,88.7 329.6,42.6 286.3,-219.6 -53.9,-326.2 -289.8,-231 -289.8,-231 z" /></clipPath><linearGradient
       id="linearGradient524"
       spreadMethod="pad"
       gradientTransform="matrix(-977.47,1342.65,-1342.65,-977.47,25250.4,19742)"
       gradientUnits="userSpaceOnUse"
       y2="0"
       x2="1"
       y1="0"
       x1="0"><stop
         id="stop520"
         offset="0"
         style="stop-opacity:1;stop-color:#febbba" /><stop
         id="stop522"
         offset="1"
         style="stop-opacity:1;stop-color:#ff928e" /></linearGradient><clipPath
       id="clipPath534"
       clipPathUnits="userSpaceOnUse"><path
         id="path532"
         d="m 21316,16775.4 c -62.6,-48.9 -277,53.2 -408.2,123.8 -64,34.4 -94.9,109.1 -73,178.4 31.6,99.5 84.2,228.1 149,244.3 107.6,26.8 590.1,-345 332.2,-546.5 z" /></clipPath><linearGradient
       id="linearGradient542"
       spreadMethod="pad"
       gradientTransform="matrix(-563.052,0,0,-563.052,21390.9,17042.9)"
       gradientUnits="userSpaceOnUse"
       y2="0"
       x2="1"
       y1="0"
       x1="0"><stop
         id="stop538"
         offset="0"
         style="stop-opacity:1;stop-color:#febbba" /><stop
         id="stop540"
         offset="1"
         style="stop-opacity:1;stop-color:#ff928e" /></linearGradient><clipPath
       id="clipPath552"
       clipPathUnits="userSpaceOnUse"><path
         id="path550"
         d="M 31873.2,13751.5 15500.3,19574.6 14634,17168.4 31001.3,11182.6 c 347.6,-127.1 735.6,13.9 921.9,333.7 191.3,328.6 374.1,842 385.2,1610.9 4,279.6 -171.8,530.6 -435.2,624.3 z" /></clipPath><linearGradient
       id="linearGradient560"
       spreadMethod="pad"
       gradientTransform="matrix(23748.3,-17324,17324,23748.3,15116.2,21412.8)"
       gradientUnits="userSpaceOnUse"
       y2="0"
       x2="1"
       y1="0"
       x1="0"><stop
         id="stop556"
         offset="0"
         style="stop-opacity:1;stop-color:#09005d" /><stop
         id="stop558"
         offset="1"
         style="stop-opacity:1;stop-color:#1a0f91" /></linearGradient><clipPath
       id="clipPath570"
       clipPathUnits="userSpaceOnUse"><path
         id="path568"
         d="m 10435,20196.5 2261.6,-277.7 c -2.4,-311.3 -104.3,-714 -449.3,-1176 l -1888.8,1246 c -100.3,66.1 -42.8,222.3 76.5,207.7 z" /></clipPath><linearGradient
       id="linearGradient578"
       spreadMethod="pad"
       gradientTransform="matrix(-3128.1,2719.04,-2719.04,-3128.1,14283.6,17557.4)"
       gradientUnits="userSpaceOnUse"
       y2="0"
       x2="1"
       y1="0"
       x1="0"><stop
         id="stop574"
         offset="0"
         style="stop-opacity:1;stop-color:#09005d" /><stop
         id="stop576"
         offset="1"
         style="stop-opacity:1;stop-color:#1a0f91" /></linearGradient><clipPath
       id="clipPath588"
       clipPathUnits="userSpaceOnUse"><path
         id="path586"
         d="m 15500.3,19574.6 c 103.6,-1508 -866.3,-2406.2 -866.3,-2406.2 l -2386.7,1574.4 c 345,462 446.9,864.7 449.3,1176 z" /></clipPath><linearGradient
       id="linearGradient596"
       spreadMethod="pad"
       gradientTransform="matrix(11582,-11902.8,11902.8,11582,11548.7,21548.2)"
       gradientUnits="userSpaceOnUse"
       y2="0"
       x2="1"
       y1="0"
       x1="0"><stop
         id="stop592"
         offset="0"
         style="stop-opacity:1;stop-color:#ff928e" /><stop
         id="stop594"
         offset="1"
         style="stop-opacity:1;stop-color:#fe7062" /></linearGradient><clipPath
       id="clipPath606"
       clipPathUnits="userSpaceOnUse"><path
         id="path604"
         d="m 31670.1,13013.6 c 19.8,0 38.4,12.3 45.3,32.1 8.9,25.1 -4.2,52.6 -29.3,61.4 l -15664.5,5536 c -25.2,8.8 -52.6,-4.3 -61.4,-29.4 -8.9,-25 4.3,-52.5 29.3,-61.3 l 15664.6,-5536 c 5.3,-1.9 10.7,-2.8 16,-2.8 z" /></clipPath><linearGradient
       id="linearGradient614"
       spreadMethod="pad"
       gradientTransform="matrix(10452.4,-10741.9,10741.9,10452.4,18611.6,21200.7)"
       gradientUnits="userSpaceOnUse"
       y2="0"
       x2="1"
       y1="0"
       x1="0"><stop
         id="stop610"
         offset="0"
         style="stop-opacity:1;stop-color:#4f52ff" /><stop
         id="stop612"
         offset="1"
         style="stop-opacity:1;stop-color:#4042e2" /></linearGradient><clipPath
       id="clipPath624"
       clipPathUnits="userSpaceOnUse"><path
         id="path622"
         d="m 31399.9,12069.6 c 19.8,0 38.4,12.3 45.3,32.1 8.9,25 -4.3,52.5 -29.3,61.4 l -15664.5,5536 c -25.2,8.8 -52.6,-4.2 -61.4,-29.3 -8.9,-25.1 4.3,-52.6 29.3,-61.4 l 15664.5,-5536 c 5.4,-1.9 10.8,-2.8 16.1,-2.8 z" /></clipPath><linearGradient
       id="linearGradient632"
       spreadMethod="pad"
       gradientTransform="matrix(10452.4,-10742,10742,10452.4,18341.4,20256.7)"
       gradientUnits="userSpaceOnUse"
       y2="0"
       x2="1"
       y1="0"
       x1="0"><stop
         id="stop628"
         offset="0"
         style="stop-opacity:1;stop-color:#4f52ff" /><stop
         id="stop630"
         offset="1"
         style="stop-opacity:1;stop-color:#4042e2" /></linearGradient><clipPath
       id="clipPath642"
       clipPathUnits="userSpaceOnUse"><path
         id="path640"
         d="m 26921.3,15647.5 -723.6,59 -313.4,-288.9 c 0,0 74.1,-102.5 305.9,-43.6 231.8,58.9 549.3,73.4 549.3,73.4 0,0 320,-144.3 323.9,125.7 z" /></clipPath><linearGradient
       id="linearGradient650"
       spreadMethod="pad"
       gradientTransform="matrix(1996.46,-1767.91,1767.91,1996.46,25750.3,16135.2)"
       gradientUnits="userSpaceOnUse"
       y2="0"
       x2="1"
       y1="0"
       x1="0"><stop
         id="stop646"
         offset="0"
         style="stop-opacity:1;stop-color:#febbba" /><stop
         id="stop648"
         offset="1"
         style="stop-opacity:1;stop-color:#ff928e" /></linearGradient></defs><g
     transform="matrix(1.3333333,0,0,-1.3333333,0,4946.6667)"
     id="g10"><g
       transform="scale(0.1)"
       id="g12"><g
         transform="scale(2.27607)"
         id="g14"><path
           id="path16"
           style="fill:#ffffff;fill-opacity:1;fill-rule:nonzero;stroke:none"
           d="M 16300,0 H 0 V 16300 H 16300 V 0" /></g><g
         id="g18"><g
           clip-path="url(#clipPath24)"
           id="g20"><g
             transform="scale(2.0119)"
             id="g26"><path
               id="path34"
               style="fill:url(#linearGradient32);fill-opacity:1;fill-rule:nonzero;stroke:none"
               d="m 9019.77,2261.54 c -931.75,0 -1679.05,98.81 -2018.04,161.89 -1335.3,248.52 -2024.4,344.1 -2964.59,1144.19 h 9948.96 c -27.2,-18.54 -56.3,-38.02 -88.3,-59.35 C 12394.3,2504.4 10480.5,2261.54 9019.77,2261.54 M 3069.76,4679.55 c -1431.8,2277.75 -1138.19,5841.55 386.57,8171.25 9.92,15.1 23.23,35.1 39.93,59.5 l 74.77,-1544.1 -69.28,1.7 c -4.86,0.2 -9.73,0.2 -14.57,0.2 -148.67,0 -291.51,-58.8 -397.03,-164 -108.96,-108.6 -168.58,-257.1 -164.95,-410.8 l 144.56,-6113.75 m 12550.34,918.34 74.2,5121.41 c 0,118.2 -134.2,344.7 -380.9,344.7 -9.2,0 -18.5,-0.3 -28,-0.9 l -283.6,7.3 c 243.6,476.2 389.4,931.3 468.9,1350.6 1021.7,-2081.4 1131.3,-4769.48 149.4,-6823.11 m -1448.9,7255.91 c -5.9,588.2 -87,1123.7 -192.6,1576.7 205.9,-188.7 453.6,-440.7 707.9,-761.7 -154.4,-246.7 -331.1,-519.6 -515.3,-815 m -1839,55 -1322,1460.4 -6165.32,37.7 c 813.45,711.8 1957.74,1433 3376.89,1618.5 22.32,2.9 378.75,50 925.3,50 1011.03,0 2672.73,-160.8 4075.33,-1059.5 -160.4,-483.9 -431.9,-1175.1 -890.2,-2107.1" /></g></g></g><g
         transform="scale(1.96662)"
         id="g36"><path
           id="path38"
           style="fill:#91b3fa;fill-opacity:1;fill-rule:nonzero;stroke:none"
           d="m 15550.7,14989.2 c 17.9,62.7 106.3,64.5 127.9,3.1 218.9,-624.3 621.4,-2362.1 -728.1,-4331.6 -1693.2,-2471.06 -1644.2,-3719.45 -1265.4,-4662.34 0,0 -795.9,764.61 -879.1,2048.75 -204.1,3152.89 2425.3,5828.69 2744.7,6942.09" /></g><g
         transform="scale(1.86815)"
         id="g40"><path
           id="path42"
           style="fill:#bdd0fb;fill-opacity:1;fill-rule:nonzero;stroke:none"
           d="m 16262.2,14733.7 c -104.5,-338.5 -215.5,-674.7 -338.7,-1006.5 -121.4,-332.2 -252.8,-660.7 -394.3,-984.6 -142.6,-323.3 -291.4,-643.9 -453.5,-957.7 -160.7,-314.5 -334.8,-621.8 -510.6,-929.6 -174,-308.7 -351,-618.7 -496.9,-947.73 -145.8,-328.19 -254.8,-679.12 -296.5,-1039.53 -10.3,-89.88 -19,-180.29 -22.3,-270.27 -4.9,-90.03 -5.9,-180.23 -5.2,-270.48 2.1,-180.45 16.3,-361.11 43.8,-539.84 55.9,-357.47 166.3,-706.1 318.2,-1031.67 16,-34.25 56.8,-49.08 91,-33.08 33.7,15.74 48.6,55.3 34,89.18 l -0.1,0.22 c -34.8,80.24 -68.5,160.74 -98.6,242.48 -15.7,40.69 -29.5,81.9 -44.2,122.91 -13,41.48 -27.7,82.43 -39.4,124.29 -49.8,166.53 -87.9,336.32 -113.3,508.1 -52.3,342.96 -53.6,695.5 -14.4,1039.85 21.5,172.04 55.7,342.16 102.9,509.11 47.3,166.86 107.5,330.39 177.1,490.6 139.2,320.66 311.8,628.86 483.6,938.76 171.4,310.2 341.5,623.1 498.5,942.5 78.9,159.5 155,320.4 228.1,482.5 37,80.9 72.4,162.5 108,244 34.9,81.8 69.2,163.8 102.9,246.1 134.1,329.3 258.1,662.6 371.4,999.4 111.7,337.3 214.3,677.4 303.8,1020.9 2.5,9.8 -3.4,19.9 -13.2,22.4 -9.5,2.5 -19.3,-3 -22.1,-12.3" /></g><g
         transform="scale(1.94024)"
         id="g44"><path
           id="path46"
           style="fill:#bdd0fb;fill-opacity:1;fill-rule:nonzero;stroke:none"
           d="m 12661.8,8405.75 c -84.4,-87.61 -230.9,-60.5 -279.8,50.88 -270.2,614.61 -876.8,2421.37 181.5,4483.27 893.8,1741.1 1213,2770.1 1325.5,3247.3 23.8,100.9 162.5,112.8 203.4,17.5 449.9,-1051.6 1629.1,-4624.6 -1430.6,-7798.95" /></g><g
         id="g48"><g
           clip-path="url(#clipPath54)"
           id="g50"><g
             transform="scale(1.66959)"
             id="g56"><path
               id="path64"
               style="fill:url(#linearGradient62);fill-opacity:1;fill-rule:nonzero;stroke:none"
               d="m 15073.7,13417.8 -112.4,2.9 c 210.1,918.7 509.9,1913.1 937.2,2847.1 9.4,20.2 29.4,32.2 50.4,32.2 7.6,0 15.4,-1.6 22.8,-5 27.8,-12.7 40,-45.4 27.3,-73.2 -420.7,-919.3 -716.9,-1898.1 -925.3,-2804" /></g></g></g><g
         id="g66"><g
           clip-path="url(#clipPath72)"
           id="g68"><g
             transform="scale(1.93713)"
             id="g74"><path
               id="path82"
               style="fill:url(#linearGradient80);fill-opacity:1;fill-rule:nonzero;stroke:none"
               d="M 15964.2,3705.32 H 14525.9 4192.96 3441.65 c -127.36,0 -231.57,104.12 -231.57,231.37 l -21.84,923.48 -150.14,6349.73 c -3.77,159.6 58.15,313.9 171.32,426.7 109.59,109.2 257.95,170.3 412.36,170.3 5.02,0 10.08,0 15.12,-0.2 l 71.96,-1.8 13.24,-273.5 -37.07,0.9 c -3.66,0.1 -7.34,0.2 -11,0.2 -108.34,0 -212.41,-43 -289.34,-119.7 -79.51,-79.3 -123.24,-187.9 -120.43,-300.2 L 3438.7,4158.67 c 0,-120.54 98.59,-219.09 219.09,-219.09 H 15662.2 c 120.5,0 219.1,98.55 219.1,219.09 l 98.3,6532.93 c -11.2,382.2 -337.4,526.4 -547.5,526.4 -6,0 -11.9,-0.1 -17.6,-0.4 l -2700.7,72.5 13.7,281.4 167.5,-4.3 96.9,-2.5 1498.5,-38.8 128.3,-3.3 124,-3.3 838.1,-21.7 294.6,-7.5 c 9.8,0.6 19.5,0.9 29,0.9 256.2,0 395.6,-235.3 395.6,-358 l -77,-5319.05 -27.2,-1877.26 c 0,-127.25 -104.2,-231.37 -231.6,-231.37" /></g></g></g><g
         id="g84"><g
           clip-path="url(#clipPath90)"
           id="g86"><g
             transform="scale(1.89906)"
             id="g92"><path
               id="path100"
               style="fill:url(#linearGradient98);fill-opacity:1;fill-rule:nonzero;stroke:none"
               d="M 15976.2,4018.56 H 3731.12 c -122.92,0 -223.48,100.53 -223.48,223.48 L 3329.7,11335.4 c -2.87,114.6 41.74,225.3 122.85,306.2 78.47,78.2 184.63,122.1 295.14,122.1 3.73,0 7.49,0 11.23,-0.2 l 37.81,-1 373.68,-7717.13 H 12605 l 354.1,7275.73 2652.5,-71.2 c 1,0.1 4.7,0.2 10.6,0.2 46.5,0 230.4,-7.9 351.3,-123.7 73.1,-70 110.4,-168.1 111,-291.1 l -30.4,-2069.86 c -0.3,-18.12 14.2,-33.02 32.3,-33.28 h 0.4 c 17.9,0 32.5,14.37 32.8,32.28 L 16150,10835 c -0.7,141.9 -44.8,256 -131.1,338.7 -136.1,130.3 -332.6,142 -392.1,142 -7.6,0 -13,-0.2 -15.7,-0.3 l -2648.7,71.1 6.3,130 2754.8,-74 c 5.9,0.3 11.9,0.4 18,0.4 214.3,0 547,-147.1 558.5,-537 l -100.3,-6663.86 c 0,-122.95 -100.5,-223.48 -223.5,-223.48 m 99.1,3995.24 c -17.8,0 -32.5,-14.38 -32.7,-32.28 l -7.9,-540.42 c -0.4,-18.12 14.1,-33.02 32.2,-33.28 h 0.5 c 17.9,0 32.4,14.37 32.7,32.28 l 8,540.42 c 0.2,18.12 -14.2,33.02 -32.3,33.28 h -0.5" /></g></g></g><g
         id="g102"><g
           clip-path="url(#clipPath108)"
           id="g104"><g
             transform="scale(1.87673)"
             id="g110"><path
               id="path118"
               style="fill:url(#linearGradient116);fill-opacity:1;fill-rule:nonzero;stroke:none"
               d="m 16258.6,7495.96 h -0.5 c -18.3,0.27 -33,15.35 -32.6,33.68 l 7.9,546.86 c 0.3,18.11 15.1,32.66 33.2,32.66 h 0.5 c 18.3,-0.27 32.9,-15.35 32.6,-33.68 l -8,-546.85 c -0.3,-18.12 -15,-32.67 -33.1,-32.67" /></g></g></g><g
         id="g120"><g
           clip-path="url(#clipPath126)"
           id="g122"><g
             transform="scale(1.88158)"
             id="g128"><path
               id="path136"
               style="fill:url(#linearGradient134);fill-opacity:1;fill-rule:nonzero;stroke:none"
               d="m 16236.3,8813.27 h -0.5 c -18.3,0.27 -32.8,15.31 -32.6,33.59 l 30.7,2089.14 c -0.6,124.1 -38.2,223.1 -112,293.7 -122,117 -307.7,124.9 -354.5,124.9 -6,0 -9.8,-0.1 -10.8,-0.2 l -2677.1,71.8 3.3,66 2673.3,-71.7 c 2.8,0.2 8.2,0.4 15.9,0.4 60,0 258.4,-11.9 395.7,-143.4 87.1,-83.5 131.6,-198.6 132.3,-341.9 l -30.7,-2089.75 c -0.3,-18.07 -15,-32.58 -33,-32.58" /></g></g></g><g
         id="g138"><g
           clip-path="url(#clipPath144)"
           id="g140"><g
             transform="scale(2.01531)"
             id="g146"><path
               id="path154"
               style="fill:url(#linearGradient152);fill-opacity:1;fill-rule:nonzero;stroke:none"
               d="M 2137.13,2987.38 H 16271.9 c 15.4,0 28.1,12.65 28.1,28.08 v 551.63 c 0,15.43 -12.7,28.08 -28.1,28.08 H 2137.13 c -15.43,0 -28.05,-12.65 -28.05,-28.08 v -551.63 c 0,-15.43 12.62,-28.08 28.05,-28.08" /></g></g></g><g
         transform="scale(1.77917)"
         id="g156"><path
           id="path158"
           style="fill:#91b3fa;fill-opacity:1;fill-rule:nonzero;stroke:none"
           d="m 12450.5,16248.8 -8090.27,49.6 c -265.89,1.6 -478.53,-220.5 -465.36,-486 L 4451.45,4317.98 h 9003.05 l 499.8,10269.62 -1503.8,1661.2" /></g><g
         id="g160"><g
           clip-path="url(#clipPath166)"
           id="g162"><g
             transform="scale(1.77193)"
             id="g168"><path
               id="path176"
               style="fill:url(#linearGradient174);fill-opacity:1;fill-rule:nonzero;stroke:none"
               d="m 12839.1,14696.6 c -264.5,9.3 -468,237.4 -447.1,501.3 l 87.1,1102.1 1533.8,-1646.1 -1173.8,42.7" /></g></g></g><g
         transform="scale(1.53544)"
         id="g178"><path
           id="path180"
           style="fill:#e7eefe;fill-opacity:1;fill-rule:nonzero;stroke:none"
           d="m 9458.03,15837.4 c -93.46,0 -171.16,81.9 -179.49,189.6 l -2.15,27.5 c -9.57,123.7 75.22,231.1 182.81,231.3 841.5,1.3 4072.2,11.6 4887.9,14.2 0.2,0 0.4,0 0.6,0 102.7,0 184,-98 180,-216.7 -3.9,-113.2 -84.6,-203.4 -182.5,-204.3 l -4885.8,-41.6 c -0.46,0 -0.91,0 -1.37,0" /></g><g
         transform="scale(1.44744)"
         id="g182"><path
           id="path184"
           style="fill:#e7eefe;fill-opacity:1;fill-rule:nonzero;stroke:none"
           d="m 9992.36,15809.3 c -99.14,0 -181.56,86.9 -190.47,201.2 l -2.21,29 c -10.16,131.2 79.72,245.2 193.93,245.4 892.69,1.4 4319.69,12.3 5185.09,15.1 0.2,0 0.4,0 0.6,0 108.8,0 195.2,-104 190.9,-229.9 -4.1,-120.1 -89.7,-215.8 -193.6,-216.7 l -5182.79,-44.1 c -0.48,0 -0.96,0 -1.45,0" /></g><g
         transform="scale(1.35074)"
         id="g186"><path
           id="path188"
           style="fill:#e7eefe;fill-opacity:1;fill-rule:nonzero;stroke:none"
           d="m 7405.22,15427.4 c -164.47,0 -303.97,93.5 -322.22,216.2 l -4.62,31.1 c -20.92,140.8 124.2,262.6 312.97,262.6 0.1,0 0.2,0 0.3,0 296.38,-0.2 761.76,-0.3 1327.67,-0.3 2254.88,0 6108.58,1.3 7253.48,1.8 0,0 0,0 0.1,0 180.6,0 327.1,-111.9 323.9,-247.1 -3.1,-128.6 -141.6,-231 -313.6,-231.7 l -8576.28,-32.6 c -0.59,0 -1.11,0 -1.7,0" /></g><g
         transform="scale(1.23134)"
         id="g190"><path
           id="path192"
           style="fill:#e7eefe;fill-opacity:1;fill-rule:nonzero;stroke:none"
           d="m 8039.72,15700.7 c -139.78,0 -257.43,101.7 -272.02,235.8 l -3.72,34.1 c -16.8,154.3 108.18,288.6 269.49,289.4 1261.5,5.4 6104.23,33 7327.13,40 0.6,0 1.2,0 1.7,0 153.5,0 277,-121.7 273.1,-269.5 -3.5,-141.1 -122.6,-254 -269.4,-255.5 l -7323.36,-74.3 c -0.97,0 -1.95,0 -2.92,0" /></g><g
         transform="scale(1.34953)"
         id="g194"><path
           id="path196"
           style="fill:#e7eefe;fill-opacity:1;fill-rule:nonzero;stroke:none"
           d="m 7397.28,12865 c -164.62,0 -304.25,93.5 -322.51,216.4 l -4.63,31.1 c -20.94,140.9 124.31,262.9 313.23,262.9 0.12,0 0.21,0 0.32,0 295.85,-0.3 760.23,-0.3 1324.5,-0.3 2256.31,0 6117.61,1.3 7264.21,1.7 180.8,0.1 327.6,-111.9 324.3,-247.2 -3,-128.8 -141.7,-231.3 -313.8,-232 L 7398.96,12865 c -0.55,0 -1.13,0 -1.68,0" /></g><g
         transform="scale(1.1779)"
         id="g198"><path
           id="path200"
           style="fill:#e7eefe;fill-opacity:1;fill-rule:nonzero;stroke:none"
           d="m 8317.18,13440.3 c -147.65,0 -271.54,107.4 -286.09,248.2 l -3.7,35.7 c -16.68,161.2 115.11,300.7 284.26,300.7 0.2,0 0.37,0 0.56,0 1324.98,-2.3 6411.49,-4.7 7695.89,-5.3 162,-0.1 291.9,-128.6 287,-283.5 -4.7,-147.5 -130.4,-264.8 -284.7,-265.5 l -7692.01,-30.3 c -0.39,0 -0.81,0 -1.21,0" /></g><g
         transform="scale(1.3435)"
         id="g202"><path
           id="path204"
           style="fill:#e7eefe;fill-opacity:1;fill-rule:nonzero;stroke:none"
           d="m 7357.29,10282.3 c -165.36,0 -305.62,94 -323.96,217.3 l -4.66,31.4 c -21.03,141.4 124.88,263.9 314.66,263.9 0.1,0 0.2,0 0.31,0 297.24,-0.2 763.93,-0.3 1331.03,-0.3 2266.43,0 6144.53,1.4 7296.23,1.8 0.1,0 0.2,0 0.3,0 181.5,0 328.8,-112.5 325.5,-248.3 -3,-129.5 -142.4,-232.3 -315.2,-233 l -8622.52,-32.8 c -0.56,0 -1.13,0 -1.69,0" /></g><g
         transform="scale(1.17512)"
         id="g206"><path
           id="path208"
           style="fill:#e7eefe;fill-opacity:1;fill-rule:nonzero;stroke:none"
           d="m 8298.31,10468.7 c -147.98,0 -272.17,107.5 -286.77,248.7 l -3.69,35.7 c -16.73,161.7 115.38,301.5 284.93,301.5 0.19,0 0.35,0 0.55,0 1328.1,-2.4 6426.67,-4.8 7714.07,-5.4 162.4,0 292.6,-128.7 287.7,-284.1 -4.7,-147.9 -130.7,-265.5 -285.3,-266.1 l -7710.26,-30.3 c -0.41,0 -0.83,0 -1.23,0" /></g><g
         transform="scale(1.35074)"
         id="g210"><path
           id="path212"
           style="fill:#e7eefe;fill-opacity:1;fill-rule:nonzero;stroke:none"
           d="m 7405.22,7631.25 c -164.47,0 -303.97,93.5 -322.22,216.25 l -4.62,31.09 c -20.92,140.74 124.2,262.6 312.97,262.6 0.1,0 0.2,0 0.3,0 295.79,-0.22 760.13,-0.29 1324.41,-0.29 2254.44,0 6111.24,1.33 7256.74,1.77 0,0 0,0 0.1,0 180.6,0 327.1,-111.86 323.9,-247.05 -3.1,-128.67 -141.6,-231.06 -313.6,-231.73 l -8576.28,-32.64 c -0.59,0 -1.11,0 -1.7,0" /></g><g
         transform="scale(1.17554)"
         id="g214"><path
           id="path216"
           style="fill:#e7eefe;fill-opacity:1;fill-rule:nonzero;stroke:none"
           d="m 8402.19,7342.75 c -145.83,0 -268.24,107.27 -282.76,248.15 l -3.69,35.81 c -16.7,161.71 113.86,301.82 281.46,301.82 0.01,0 0,0 0.02,0 6.96,0 14.09,0 21.25,0 1343,0 6328.63,6.55 7592.63,8.25 0.2,0 0.3,0 0.4,0 160.1,0 288.5,-128.37 283.8,-283.53 -4.4,-147.85 -128.8,-265.58 -281.3,-266.43 l -7610.08,-44.07 c -0.57,0 -1.16,0 -1.73,0" /></g><g
         transform="scale(1.65831)"
         id="g218"><path
           id="path220"
           style="fill:#e7eefe;fill-opacity:1;fill-rule:nonzero;stroke:none"
           d="m 7579.45,13807.7 -126.03,2.2 -567.02,1818.3 -489.17,-1800.7 -132.31,2.3 -862.97,2209.1 c -39.51,104.3 -79.72,166.5 -120.58,186.9 -40.93,20.2 -152.52,33.7 -335.28,40.2 v 34 l 1342.23,-48.5 v -33.6 c -45.71,1.7 -87.44,2.5 -125.07,2.5 -92.98,0 -161.27,-5 -204.87,-15 -61.39,-14.1 -92.09,-44.9 -92.09,-92.4 0,-25 7.86,-55.4 23.53,-90.9 l 612.33,-1585.3 353.25,1285.2 -82.19,268.7 c -31.24,101 -68.93,162.3 -113.19,183.9 -44.26,21.6 -157.69,35.6 -340.71,42.2 v 33.6 l 1319.6,-47.7 v -33.3 c -44.08,1.6 -84.24,2.4 -120.61,2.4 -91.29,0 -158.29,-4.9 -201.04,-14.9 -59.82,-14 -89.73,-47 -89.73,-98.9 0,-27.2 5.06,-54.6 15.31,-82.2 l 492.79,-1569.4 417.66,1136.7 c 42.39,119 63.68,216.5 63.68,292.6 0,208.7 -151.24,318.4 -454.74,329.3 v 33.2 l 973.46,-35.1 v -33 c -6.15,0.2 -12.37,0.3 -18.46,0.3 -168.18,0 -293.55,-84.8 -375.86,-254.5 -12.6,-26.5 -59.04,-145.2 -139.54,-356 l -622.38,-1712.2" /></g><g
         id="g222"><g
           clip-path="url(#clipPath228)"
           id="g224"><g
             transform="scale(1.61218)"
             id="g230"><path
               id="path238"
               style="fill:url(#linearGradient236);fill-opacity:1;fill-rule:nonzero;stroke:none"
               d="m 15295.8,4811.92 c 177,-15.32 484.3,-40.19 726.5,-50.8 145.6,-6.45 229.4,7.82 277.7,27.17 -0.1,-5.46 -0.2,-10.61 -0.4,-15.39 -1.2,-25.49 -21.9,-45.9 -47.7,-47.32 -457.7,-25.56 -821.7,-8.81 -951.2,-0.93 -26.8,1.61 -42.8,30.76 -29.1,53.59 6.9,11.41 15.2,22.58 24.2,33.68" /></g></g></g><g
         id="g240"><g
           clip-path="url(#clipPath246)"
           id="g242"><g
             transform="scale(1.61221)"
             id="g248"><path
               id="path256"
               style="fill:url(#linearGradient254);fill-opacity:1;fill-rule:nonzero;stroke:none"
               d="m 16022.1,4761.05 c -242.3,10.6 -549.5,35.48 -726.6,50.8 174.1,213.49 726.6,357.46 726.6,357.46 h 156 c 107.3,-154.7 122.8,-301.95 121.7,-381.09 -48.4,-19.36 -132.2,-33.62 -277.7,-27.17" /></g></g></g><g
         id="g258"><g
           clip-path="url(#clipPath264)"
           id="g260"><g
             transform="scale(1.60275)"
             id="g266"><path
               id="path274"
               style="fill:url(#linearGradient272);fill-opacity:1;fill-rule:nonzero;stroke:none"
               d="m 16300,5456 -14.7,-290.62 c -1.6,-31.45 -25.2,-57.9 -56.7,-62.4 -31.4,-4.49 -73.4,-5.05 -117.9,9.74 -27.4,9.11 -47.7,32.19 -52.8,60.4 l -50.7,282.88 h 292.8" /></g></g></g><g
         id="g276"><g
           clip-path="url(#clipPath282)"
           id="g278"><g
             transform="scale(1.81595)"
             id="g284"><path
               id="path292"
               style="fill:url(#linearGradient290);fill-opacity:1;fill-rule:nonzero;stroke:none"
               d="m 16185.5,4228.75 c 68.1,9.53 98.9,44.93 111.9,82.77 l 0.2,-1 c 10.1,-39.92 -13.2,-81.33 -59.7,-100.99 -56.1,-23.79 -117.5,-27.86 -165.2,-25.88 -51.2,2.09 -98.1,23.29 -124,57.16 l -0.4,0.49 c 51.4,-25.38 123.5,-28.36 237.2,-12.55" /></g></g></g><g
         id="g294"><g
           clip-path="url(#clipPath300)"
           id="g296"><g
             transform="scale(1.81566)"
             id="g302"><path
               id="path310"
               style="fill:url(#linearGradient308);fill-opacity:1;fill-rule:nonzero;stroke:none"
               d="m 15866.7,4817.87 h 114.2 c 174,3.58 283.4,-363.5 319.1,-505.66 -12.9,-37.83 -43.8,-73.25 -111.9,-82.78 -113.7,-15.8 -185.8,-12.83 -237.2,12.56 -94,123.76 -140.6,304.96 -163,410.71 -25.5,120.29 78.8,165.17 78.8,165.17" /></g></g></g><g
         id="g312"><g
           clip-path="url(#clipPath318)"
           id="g314"><g
             transform="scale(1.78577)"
             id="g320"><path
               id="path328"
               style="fill:url(#linearGradient326);fill-opacity:1;fill-rule:nonzero;stroke:none"
               d="m 16233.5,5140.65 64.5,-256.59 c 7.9,-31.41 -7.2,-64 -36.2,-78.9 -36.1,-18.53 -87,-37.96 -133.6,-32.36 -22,2.68 -40.2,18.14 -47.5,38.8 l -94.7,269.91 247.5,59.14" /></g></g></g><g
         id="g330"><g
           clip-path="url(#clipPath336)"
           id="g332"><g
             transform="scale(1.78691)"
             id="g338"><path
               id="path346"
               style="fill:url(#linearGradient344);fill-opacity:1;fill-rule:nonzero;stroke:none"
               d="m 16300,5063.22 c -80.2,-71.13 -341.1,-80.53 -341.1,-80.53 -939.7,2255.4 -1324.1,2575.79 -1324.1,2575.79 135.7,-851.31 21.9,-2735.9 21.9,-2735.9 -155.1,-68.45 -355,0 -355,0 -12.5,1393.63 -226.8,2609.03 -479.8,3567.22 635.1,14.33 972.8,231.63 1083.1,318.88 529.4,-853.55 1395,-3645.46 1395,-3645.46" /></g></g></g><g
         id="g348"><g
           clip-path="url(#clipPath354)"
           id="g350"><g
             transform="scale(1.64049)"
             id="g356"><path
               id="path364"
               style="fill:url(#linearGradient362);fill-opacity:1;fill-rule:nonzero;stroke:none"
               d="m 16059.6,12311.1 c 131,-653.2 84,-1822.2 53.2,-2355.42 -8.7,-149.83 96,-357.64 180.6,-499.36 13.2,-22.25 5,-50.72 -18,-62.54 -141.6,-72.79 -621.2,-298.27 -1177.1,-326.31 -37.1,-1.89 -70.2,23.35 -79.7,59.19 -412.4,1539.64 -891.4,2523.54 -891.4,2523.54 528.8,844.4 1932.4,660.9 1932.4,660.9" /></g></g></g><g
         id="g366"><g
           clip-path="url(#clipPath372)"
           id="g368"><g
             transform="scale(1.60067)"
             id="g374"><path
               id="path382"
               style="fill:url(#linearGradient380);fill-opacity:1;fill-rule:nonzero;stroke:none"
               d="m 16266,8497.48 c 6,0 11.9,1.62 17.4,4.93 15.9,9.69 20.8,30.3 11.2,46.11 -5.6,9.31 -141.3,228.65 -415.9,361.1 -16.6,7.99 -36.8,1.12 -44.9,-15.62 -8,-16.74 -1,-36.86 15.7,-44.86 256,-123.51 386.5,-333.48 387.8,-335.54 6.3,-10.37 17.3,-16.12 28.7,-16.12" /></g></g></g><g
         id="g384"><g
           clip-path="url(#clipPath390)"
           id="g386"><g
             transform="scale(1.69896)"
             id="g392"><path
               id="path400"
               style="fill:url(#linearGradient398);fill-opacity:1;fill-rule:nonzero;stroke:none"
               d="m 16300,10077.4 c -40.6,-293.85 -160.6,-614.28 -400.7,-954.66 l -91.2,74.34 c 0,0 105.3,427.38 45.5,912.42 148,28.9 322.9,-0.9 446.4,-32.1" /></g></g></g><g
         id="g402"><g
           clip-path="url(#clipPath408)"
           id="g404"><g
             transform="scale(1.70067)"
             id="g410"><path
               id="path418"
               style="fill:url(#linearGradient416);fill-opacity:1;fill-rule:nonzero;stroke:none"
               d="m 15350.3,11098.1 141,777.3 c 0,0 942.6,-720.5 792.3,-1808.2 -123.4,31.3 -298.1,61 -446,32.1 -43.1,349.1 -171.8,728 -487.3,998.8" /></g></g></g><g
         id="g420"><g
           clip-path="url(#clipPath426)"
           id="g422"><g
             transform="scale(1.45978)"
             id="g428"><path
               id="path436"
               style="fill:url(#linearGradient434);fill-opacity:1;fill-rule:nonzero;stroke:none"
               d="m 15876.1,13092.4 423.9,-913 c -68.6,-551.1 -364.6,-789.4 -683.9,-880.8 -19.8,251.2 -83.4,454.1 -142.3,594.5 407.9,421.2 402.3,1199.3 402.3,1199.3" /></g></g></g><g
         id="g438"><g
           clip-path="url(#clipPath444)"
           id="g440"><g
             transform="scale(1.39853)"
             id="g446"><path
               id="path454"
               style="fill:url(#linearGradient452);fill-opacity:1;fill-rule:nonzero;stroke:none"
               d="m 16151.4,12413.9 c 61.5,-146.5 127.9,-358.3 148.6,-620.5 -889,-344.9 -1124.2,324 -1124.2,324 l 164.3,29 c 371,-39.1 630.2,80.5 811.3,267.5" /></g></g></g><g
         id="g456"><g
           clip-path="url(#clipPath462)"
           id="g458"><g
             transform="scale(1.52834)"
             id="g464"><path
               id="path472"
               style="fill:url(#linearGradient470);fill-opacity:1;fill-rule:nonzero;stroke:none"
               d="m 15536.9,13581.6 195.4,-718.6 c 22,-80.7 109.3,-124 187,-93 83.8,33.5 190.2,79.2 281.7,128.7 97.8,52.7 128.3,178.4 66.5,270.7 l -406.4,605.9 -324.2,-193.7" /></g></g></g><g
         id="g474"><g
           clip-path="url(#clipPath480)"
           id="g476"><g
             transform="scale(1.47503)"
             id="g482"><path
               id="path490"
               style="fill:url(#linearGradient488);fill-opacity:1;fill-rule:nonzero;stroke:none"
               d="m 15655.4,14638.1 c -1.9,-12.8 168.9,-849.6 168.9,-849.6 l 475.7,107.6 -44,817.2 c 0,0 -569.8,138.8 -600.6,-75.2" /></g></g></g><g
         id="g492"><g
           clip-path="url(#clipPath498)"
           id="g494"><g
             transform="scale(1.50123)"
             id="g500"><path
               id="path508"
               style="fill:url(#linearGradient506);fill-opacity:1;fill-rule:nonzero;stroke:none"
               d="m 15867.2,14277.7 55.9,-421 c 0.7,-5.4 0.7,-10.7 -0.1,-16.1 -4.7,-33 -29.3,-145.3 -142.6,-113.2 -102.9,29.2 -197.2,54.3 -262.4,34.3 -29.2,-8.9 -46.9,-38.6 -40.7,-68.6 15.2,-74.6 52.7,-242.3 107.6,-383.1 11.1,-28.5 42.3,-43.5 71.8,-34.9 88.6,25.8 274.1,85.6 412,168.6 18.7,11.2 29.8,31.5 28.9,53.3 -4.5,106.3 -16.9,429.3 -6.5,519.8 9.9,85 114.2,135.9 159.5,154.1 14.8,6 26.5,17.8 32.4,32.6 21,52.6 49.9,174.3 -103.4,224.2 -32.1,10.4 -49.1,45 -37.6,76.8 22.7,63.2 32.2,159.7 -86.4,212.9 -120.6,54 -210.6,-10.3 -259.2,-62.5 -19.7,-21.1 -51.2,-24.4 -75.6,-8.9 -13.9,8.7 -31.8,11.6 -53.4,-1.8 -29.1,-18.2 -67.7,-5.8 -82.7,25 -28.9,59.3 -87.8,122.8 -205.8,102.5 -209.4,-35.8 -233.2,-268 -177.9,-404 55.3,-136 280.1,-84.2 392.9,-15.6 85.8,52.1 197,-2.5 245.5,-31.7 15.3,-9.2 25.5,-25 27.8,-42.7" /></g></g></g><g
         id="g510"><g
           clip-path="url(#clipPath516)"
           id="g512"><g
             transform="scale(1.5019)"
             id="g518"><path
               id="path526"
               style="fill:url(#linearGradient524);fill-opacity:1;fill-rule:nonzero;stroke:none"
               d="m 16102.7,13857.2 c 0,0 -86.1,241 2.3,300 88.5,59 219.5,28.3 190.7,-146.2 -35.9,-217.2 -193,-153.8 -193,-153.8" /></g></g></g><g
         id="g528"><g
           clip-path="url(#clipPath534)"
           id="g530"><g
             transform="scale(1.31233)"
             id="g536"><path
               id="path544"
               style="fill:url(#linearGradient542);fill-opacity:1;fill-rule:nonzero;stroke:none"
               d="m 16242.8,12782.9 c -47.7,-37.3 -211,40.5 -311,94.3 -48.8,26.3 -72.3,83.2 -55.6,136 24.1,75.8 64.1,173.8 113.5,186.1 82,20.5 449.7,-262.9 253.1,-416.4" /></g></g></g><g
         id="g546"><g
           clip-path="url(#clipPath552)"
           id="g548"><g
             transform="scale(1.98215)"
             id="g554"><path
               id="path562"
               style="fill:url(#linearGradient560);fill-opacity:1;fill-rule:nonzero;stroke:none"
               d="M 16080.1,6937.68 7819.95,9875.45 7382.9,8661.52 15640.3,5641.66 c 175.3,-64.12 371.1,7.01 465.1,168.35 96.5,165.78 188.7,424.79 194.3,812.71 2,141.06 -86.7,267.69 -219.6,314.96" /></g></g></g><g
         id="g564"><g
           clip-path="url(#clipPath570)"
           id="g566"><g
             transform="scale(1.23914)"
             id="g572"><path
               id="path580"
               style="fill:url(#linearGradient578);fill-opacity:1;fill-rule:nonzero;stroke:none"
               d="m 8421.16,16298.8 1825.14,-224.1 c -1.9,-251.2 -84.2,-576.2 -362.6,-949.1 l -1524.28,1005.6 c -80.94,53.3 -34.54,179.4 61.74,167.6" /></g></g></g><g
         id="g582"><g
           clip-path="url(#clipPath588)"
           id="g584"><g
             transform="scale(1.22201)"
             id="g590"><path
               id="path598"
               style="fill:url(#linearGradient596);fill-opacity:1;fill-rule:nonzero;stroke:none"
               d="m 12684.2,16018.3 c 84.8,-1234 -708.9,-1969 -708.9,-1969 l -1953.1,1288.4 c 282.4,378 365.7,707.6 367.7,962.3 l 2294.3,-281.7" /></g></g></g><g
         id="g600"><g
           clip-path="url(#clipPath606)"
           id="g602"><g
             transform="scale(1.94595)"
             id="g608"><path
               id="path616"
               style="fill:url(#linearGradient614);fill-opacity:1;fill-rule:nonzero;stroke:none"
               d="m 16274.9,6687.53 c 10.1,0 19.7,6.32 23.3,16.49 4.5,12.9 -2.2,27.03 -15.1,31.56 L 8233.3,9580.46 c -12.95,4.52 -27.03,-2.21 -31.55,-15.11 -4.57,-12.85 2.21,-26.98 15.06,-31.5 L 16266.6,6688.97 c 2.8,-0.98 5.5,-1.44 8.3,-1.44" /></g></g></g><g
         id="g618"><g
           clip-path="url(#clipPath624)"
           id="g620"><g
             transform="scale(1.92933)"
             id="g626"><path
               id="path634"
               style="fill:url(#linearGradient632);fill-opacity:1;fill-rule:nonzero;stroke:none"
               d="m 16275.1,6255.87 c 10.2,0 19.9,6.37 23.4,16.63 4.7,12.96 -2.2,27.22 -15.1,31.83 l -8119.2,2869.4 c -13.06,4.56 -27.26,-2.18 -31.82,-15.19 -4.61,-13.01 2.23,-27.26 15.18,-31.82 l 8119.14,-2869.4 c 2.8,-0.99 5.6,-1.45 8.4,-1.45" /></g></g></g><g
         id="g636"><g
           clip-path="url(#clipPath642)"
           id="g638"><g
             transform="scale(1.66033)"
             id="g644"><path
               id="path652"
               style="fill:url(#linearGradient650);fill-opacity:1;fill-rule:nonzero;stroke:none"
               d="m 16214.4,9424.32 -435.8,35.54 -188.8,-174 c 0,0 44.7,-61.74 184.3,-26.26 139.6,35.47 330.8,44.21 330.8,44.21 0,0 192.7,-86.91 195.1,75.7 l -85.6,44.81" /></g></g></g></g></g></svg>